<svg xmlns="http://www.w3.org/2000/svg" fill="none" viewBox="0 0 40 40" height="40" width="40">
<rect fill="#F9FAFB" rx="4" height="40" width="40"></rect>
<path fill="#FFD5C9" d="M7.72932 12.9256C7.80842 12.6551 8.19158 12.6551 8.27068 12.9256L8.86176 14.9467C8.88876 15.039 8.96096 15.1112 9.05328 15.1382L11.0744 15.7293C11.3449 15.8084 11.3449 16.1916 11.0744 16.2707L9.05328 16.8618C8.96096 16.8888 8.88876 16.961 8.86176 17.0533L8.27068 19.0744C8.19158 19.3449 7.80842 19.3449 7.72932 19.0744L7.13824 17.0533C7.11124 16.961 7.03904 16.8888 6.94672 16.8618L4.92558 16.2707C4.6551 16.1916 4.6551 15.8084 4.92557 15.7293L6.94672 15.1382C7.03904 15.1112 7.11124 15.039 7.13824 14.9467L7.72932 12.9256Z"></path>
<path fill="#FFD5C9" d="M32.4862 11.6171C32.5389 11.4367 32.7944 11.4367 32.8471 11.617L33.2412 12.9645C33.2592 13.026 33.3073 13.0742 33.3689 13.0922L34.7163 13.4862C34.8966 13.5389 34.8966 13.7944 34.7163 13.8471L33.3689 14.2412C33.3073 14.2592 33.2592 14.3073 33.2412 14.3689L32.8471 15.7163C32.7944 15.8966 32.5389 15.8966 32.4862 15.7163L32.0922 14.3689C32.0742 14.3073 32.026 14.2592 31.9645 14.2412L30.6171 13.8471C30.4367 13.7944 30.4367 13.5389 30.617 13.4862L31.9645 13.0922C32.026 13.0742 32.0742 13.026 32.0922 12.9645L32.4862 11.6171Z"></path>
<path fill="#FF8D6D" d="M27.4948 15.5154C27.4993 14.0362 26.2991 12.8359 24.8199 12.8405L19.1456 12.858C18.4412 12.8601 17.7662 13.1409 17.2682 13.639L14.5986 16.3086L9.58969 21.3175C8.54829 22.3589 8.54829 24.0473 9.58968 25.0887L15.2465 30.7456C16.2879 31.787 17.9764 31.787 19.0178 30.7456L24.0267 25.7367L26.6963 23.0671C27.1943 22.569 27.4751 21.8941 27.4773 21.1897L27.4948 15.5154ZM21.106 18.5757C21.8056 19.4485 23.0803 19.5889 23.9531 18.8893C24.8258 18.1897 24.9663 16.915 24.2667 16.0422C23.5671 15.1694 22.2924 15.029 21.4196 15.7286C20.5468 16.4282 20.4064 17.7029 21.106 18.5757Z" clip-rule="evenodd" fill-rule="evenodd"></path>
<path stroke-linejoin="round" stroke-linecap="round" stroke-width="1.33333" stroke="#F9FAFB" d="M20.8071 21.1663L13.7558 24.288"></path>
<path fill="#F9FAFB" d="M18.0302 26.7195C18.6811 26.9891 19.4273 26.68 19.6969 26.0291C19.9665 25.3782 19.6574 24.632 19.0065 24.3624C18.3556 24.0928 17.6094 24.4019 17.3398 25.0528C17.0702 25.7037 17.3793 26.4499 18.0302 26.7195Z"></path>
<path fill="#F9FAFB" d="M15.7958 21.1382C16.4467 21.4078 17.1929 21.0987 17.4625 20.4478C17.7321 19.7969 17.423 19.0507 16.7721 18.7811C16.1213 18.5115 15.3751 18.8206 15.1055 19.4715C14.8359 20.1224 15.145 20.8686 15.7958 21.1382Z"></path>
</svg>
